<svg width="300" height="300" viewBox="0 0 300 300" fill="none" xmlns="http://www.w3.org/2000/svg">
<rect x="10" y="10" width="280" height="280" rx="30" stroke="white" stroke-width="20"/>
<path fill-rule="evenodd" clip-rule="evenodd" d="M49 199C49 192.096 54.5964 186.5 61.5 186.5H191.5C198.404 186.5 204 192.096 204 199C204 205.904 198.404 211.5 191.5 211.5H61.5C54.5964 211.5 49 205.904 49 199Z" fill="white"/>
<path fill-rule="evenodd" clip-rule="evenodd" d="M49 244C49 237.096 54.5964 231.5 61.5 231.5H238.5C245.404 231.5 251 237.096 251 244C251 250.904 245.404 256.5 238.5 256.5H61.5C54.5964 256.5 49 250.904 49 244Z" fill="white"/>
<path d="M55.0465 166C51.0155 166 49 163.856 49 159.567V49.4331C49 45.1444 51.0155 43 55.0465 43H85.1927C111.682 43 129.591 48.318 138.92 58.954C148.307 69.59 153 84.7148 153 104.328C153 123.942 148.307 139.124 138.92 149.874C129.591 160.625 111.682 166 85.1927 166H55.0465ZM74.2226 144.728H83.5515C101.403 144.728 112.949 141.44 118.189 134.864C123.43 128.231 126.05 118.052 126.05 104.328C126.05 90.6046 123.43 80.4833 118.189 73.9644C112.949 67.3884 101.403 64.1004 83.5515 64.1004H74.2226V144.728Z" fill="white"/>
</svg>
